<svg width="20" height="22" viewBox="0 0 20 22" fill="none" xmlns="http://www.w3.org/2000/svg">
<path d="M10.3019 0.61172C10.2848 0.611877 10.2676 0.612455 10.2505 0.613451C10.178 0.618598 10.1065 0.6331 10.038 0.656565C9.98607 0.674479 9.93618 0.697393 9.88907 0.724959L1.23394 5.52414C1.11214 5.5917 1.011 5.68887 0.94069 5.80587C0.870376 5.92287 0.833364 6.05558 0.833374 6.19068C0.833374 6.19587 0.833735 6.20176 0.833915 6.2073C0.833735 6.21336 0.833915 6.21942 0.833915 6.22565V15.8101C0.833887 15.9493 0.87319 16.086 0.947636 16.2054C1.02208 16.3249 1.12888 16.4228 1.25666 16.4886L9.90827 21.2862C9.9245 21.295 9.94072 21.3032 9.95695 21.311V21.3128C9.98132 21.3241 10.0063 21.3341 10.0318 21.3429C10.0318 21.3438 10.0408 21.3455 10.0426 21.3464C10.0678 21.355 10.0931 21.3617 10.1192 21.3676C10.1282 21.3684 10.1291 21.3702 10.1336 21.371C10.1589 21.3762 10.185 21.3807 10.2111 21.3837C10.2111 21.3841 10.2201 21.3844 10.2238 21.3845C10.2508 21.3871 10.2787 21.3889 10.3058 21.3889C10.3328 21.3889 10.3608 21.3871 10.3878 21.3845C10.3878 21.3841 10.3968 21.3838 10.4004 21.3837C10.4265 21.381 10.4524 21.3768 10.4779 21.371C10.487 21.3702 10.4879 21.3693 10.4924 21.3676C10.5182 21.3617 10.5438 21.3546 10.569 21.3464C10.569 21.3455 10.578 21.3438 10.5798 21.3429C10.6052 21.3341 10.6302 21.3241 10.6546 21.3128V21.3111C10.6711 21.3033 10.6873 21.295 10.7033 21.2863L19.3552 16.4886C19.4829 16.4229 19.5897 16.325 19.6641 16.2055C19.7386 16.086 19.7779 15.9494 19.7778 15.8102V6.21985C19.7778 6.21206 19.7773 6.20496 19.7771 6.19752H19.7774V6.19059C19.7773 6.0794 19.7522 5.96954 19.7037 5.86859C19.6552 5.76763 19.5845 5.67797 19.4964 5.60578C19.4874 5.59885 19.4793 5.59175 19.4703 5.58492C19.4703 5.58318 19.4613 5.58059 19.4613 5.57885C19.4305 5.55632 19.3982 5.53592 19.3645 5.51782L10.7142 0.720717C10.5878 0.6478 10.4429 0.609868 10.2954 0.611114L10.3019 0.61172ZM10.3109 2.56164C10.3758 2.56164 10.441 2.57783 10.4993 2.61012L16.3912 5.87745C16.6426 6.01684 16.6426 6.36513 16.3912 6.50451L10.4992 9.77184C10.4419 9.80362 10.3769 9.82034 10.3107 9.82034C10.2446 9.82034 10.1796 9.80362 10.1223 9.77184L4.23037 6.50451C3.97906 6.36521 3.97897 6.01684 4.23037 5.87745L10.1224 2.61012C10.1797 2.57841 10.2447 2.56169 10.3108 2.56164H10.3109ZM3.02776 8.15263C3.09579 8.15169 3.1628 8.1686 3.22155 8.20155L9.10209 11.4625C9.15925 11.4941 9.20673 11.5397 9.23973 11.5946C9.27274 11.6495 9.29012 11.7118 9.29011 11.7752V18.2965C9.29011 18.5746 8.97671 18.7484 8.72586 18.6093L2.84559 15.3484C2.78843 15.3167 2.74095 15.2711 2.70795 15.2162C2.67494 15.1613 2.65757 15.099 2.65757 15.0356V8.51426C2.65757 8.30578 2.83378 8.15584 3.02776 8.15263ZM17.5938 8.15263C17.7876 8.1561 17.964 8.3057 17.964 8.51426V15.0355C17.964 15.1645 17.8919 15.2838 17.7759 15.3484L11.8954 18.6093C11.6449 18.7483 11.3314 18.5746 11.3314 18.2964V11.7752C11.3314 11.6462 11.4035 11.527 11.5194 11.4624L17.3997 8.20146C17.4586 8.1685 17.5256 8.15159 17.5937 8.15255L17.5938 8.15263Z" fill="#2188FF"/>
</svg>
