<svg width="18" height="15" viewBox="0 0 18 15" fill="none" xmlns="http://www.w3.org/2000/svg">
<path d="M9.00002 10.7778C8.54169 10.7778 8.14933 10.6146 7.82294 10.2882C7.49655 9.96186 7.33335 9.5695 7.33335 9.11117C7.33335 8.65283 7.49655 8.26047 7.82294 7.93408C8.14933 7.60769 8.54169 7.4445 9.00002 7.4445C9.45835 7.4445 9.85072 7.60769 10.1771 7.93408C10.5035 8.26047 10.6667 8.65283 10.6667 9.11117C10.6667 9.5695 10.5035 9.96186 10.1771 10.2882C9.85072 10.6146 9.45835 10.7778 9.00002 10.7778ZM5.04169 12.1737C4.72224 11.7431 4.46877 11.2709 4.28127 10.757C4.09377 10.2431 4.00002 9.6945 4.00002 9.11117C4.00002 7.72228 4.48613 6.54172 5.45835 5.5695C6.43058 4.59728 7.61113 4.11117 9.00002 4.11117C10.3889 4.11117 11.5695 4.59728 12.5417 5.5695C13.5139 6.54172 14 7.72228 14 9.11117C14 9.6945 13.9063 10.2501 13.7188 10.7778C13.5313 11.3056 13.2778 11.7778 12.9584 12.1945C12.8195 12.3751 12.6354 12.4653 12.4063 12.4653C12.1771 12.4653 11.9722 12.3751 11.7917 12.1945C11.6389 12.0417 11.559 11.8542 11.5521 11.632C11.5452 11.4098 11.6111 11.1945 11.75 10.9862C11.9445 10.7084 12.0903 10.4132 12.1875 10.1007C12.2847 9.78825 12.3334 9.45839 12.3334 9.11117C12.3334 8.1945 12.007 7.40978 11.3542 6.757C10.7014 6.10422 9.91669 5.77783 9.00002 5.77783C8.08335 5.77783 7.29863 6.10422 6.64585 6.757C5.99308 7.40978 5.66669 8.1945 5.66669 9.11117C5.66669 9.47228 5.71877 9.80561 5.82294 10.1112C5.9271 10.4167 6.06947 10.7084 6.25002 10.9862C6.38891 11.1945 6.45141 11.4132 6.43752 11.6424C6.42363 11.8716 6.3403 12.0626 6.18752 12.2153C6.02085 12.382 5.82294 12.4619 5.59377 12.4549C5.3646 12.448 5.18058 12.3542 5.04169 12.1737ZM2.68752 14.5487C2.06252 13.8126 1.56946 12.9827 1.20835 12.0591C0.847243 11.1355 0.666687 10.1528 0.666687 9.11117C0.666687 7.95839 0.885437 6.87505 1.32294 5.86117C1.76044 4.84728 2.35419 3.96533 3.10419 3.21533C3.85419 2.46533 4.73613 1.87158 5.75002 1.43408C6.76391 0.996582 7.84724 0.777832 9.00002 0.777832C10.1528 0.777832 11.2361 0.996582 12.25 1.43408C13.2639 1.87158 14.1459 2.46533 14.8959 3.21533C15.6459 3.96533 16.2396 4.84728 16.6771 5.86117C17.1146 6.87505 17.3334 7.95839 17.3334 9.11117C17.3334 10.1528 17.1528 11.1389 16.7917 12.0695C16.4306 13.0001 15.9375 13.8334 15.3125 14.5695C15.1597 14.7362 14.9722 14.8195 14.75 14.8195C14.5278 14.8195 14.3334 14.7362 14.1667 14.5695C14.0139 14.4167 13.934 14.2257 13.9271 13.9966C13.9202 13.7674 13.9931 13.5626 14.1459 13.382C14.6181 12.7987 14.9896 12.1459 15.2604 11.4237C15.5313 10.7014 15.6667 9.93061 15.6667 9.11117C15.6667 7.25005 15.0209 5.67367 13.7292 4.382C12.4375 3.09033 10.8611 2.4445 9.00002 2.4445C7.13891 2.4445 5.56252 3.09033 4.27085 4.382C2.97919 5.67367 2.33335 7.25005 2.33335 9.11117C2.33335 9.93061 2.46877 10.698 2.7396 11.4132C3.01044 12.1285 3.38891 12.7778 3.87502 13.3612C4.0278 13.5417 4.10072 13.7466 4.09377 13.9757C4.08683 14.2049 4.00002 14.4028 3.83335 14.5695C3.66669 14.7362 3.47224 14.816 3.25002 14.8091C3.0278 14.8021 2.8403 14.7153 2.68752 14.5487Z" fill="#2188FF"/>
</svg>
